    <svg
                fill="gray"
                viewBox="-3 -3 66.00 66.00"
                              >
                <g
                  stroke-linecap="round"
                  stroke-linejoin="round"
                ></g>
                <g >
                  <g>
                    <path
                      d="M30,16c4.411,0,8-3.589,8-8s-3.589-8-8-8s-8,3.589-8,8S25.589,16,30,16z"
                    ></path>
                    <path
                      d="M30,44c-4.411,0-8,3.589-8,8s3.589,8,8,8s8-3.589,8-8S34.411,44,30,44z"
                    ></path>
                    <path
                      d="M30,22c-4.411,0-8,3.589-8,8s3.589,8,8,8s8-3.589,8-8S34.411,22,30,22z"
                    ></path>
                  </g>
                </g>
              </svg>