     <svg
                viewBox="-1.32 -1.32 46.64 46.64"
                fill="blue"
              >
                <g
                  
                  stroke-linecap="round"
                  stroke-linejoin="round"
                ></g>
                <g>
                  <path
                    fill="orangered"
                    d="M22,0C9.869,0,0,9.869,0,22s9.869,22,22,22s22-9.869,22-22S34.131,0,22,0z M29.5,11 c1.933,0,3.5,1.567,3.5,3.5S31.433,18,29.5,18S26,16.433,26,14.5S27.567,11,29.5,11z M13.5,11c1.933,0,3.5,1.567,3.5,3.5 S15.433,18,13.5,18S10,16.433,10,14.5S11.567,11,13.5,11z M22,37c-6.617,0-12-5.383-12-12c0-0.552,0.448-1,1-1s1,0.448,1,1 c0,5.514,4.486,10,10,10s10-4.486,10-10c0-0.552,0.448-1,1-1s1,0.448,1,1C34,31.617,28.617,37,22,37z"
                  ></path>
                </g>
              </svg>