<svg
  xmlns="http://www.w3.org/2000/svg"
  viewBox="0 0 97.199997 97.199997"
  >
  <g
    transform="translate(-1.4,-1.4)"
    style="fill:orangered"><polygon
      points="44.1,58.3 31.8,45.9 28.8,48.9 44.1,64.2 69.5,38.8 66.6,35.8 "
      style="fill:orangered" /><path
      d="M 50,88.6 C 71.3,88.6 88.6,71.3 88.6,50 88.6,28.7 71.3,11.4 50,11.4 28.7,11.4 11.4,28.7 11.4,50 11.4,71.3 28.7,88.6 50,88.6 Z m 0,-73 C 68.9,15.6 84.4,31 84.4,50 84.4,69 68.9,84.4 50,84.4 31.1,84.4 15.6,68.9 15.6,50 15.6,31.1 31.1,15.6 50,15.6 Z"
      style="fill:orangered" /></g></svg>